<svg xmlns="http://www.w3.org/2000/svg" viewBox="0 0 24 24" fill="currentColor">
  <path d="M4.5 3.75a.75.75 0 0 0-.75.75v1.5a.75.75 0 0 0 .75.75h1.5a.75.75 0 0 0 .75-.75v-1.5a.75.75 0 0 0-.75-.75h-1.5zm0 6a.75.75 0 0 0-.75.75v1.5a.75.75 0 0 0 .75.75h1.5a.75.75 0 0 0 .75-.75v-1.5a.75.75 0 0 0-.75-.75h-1.5zm0 6a.75.75 0 0 0-.75.75v1.5a.75.75 0 0 0 .75.75h1.5a.75.75 0 0 0 .75-.75v-1.5a.75.75 0 0 0-.75-.75h-1.5zM9 3.75A.75.75 0 0 0 8.25 4.5v1.5a.75.75 0 0 0 .75.75h1.5a.75.75 0 0 0 .75-.75V4.5a.75.75 0 0 0-.75-.75H9zm0 6a.75.75 0 0 0-.75.75v1.5a.75.75 0 0 0 .75.75h1.5a.75.75 0 0 0 .75-.75v-1.5a.75.75 0 0 0-.75-.75H9zm0 6a.75.75 0 0 0-.75.75v1.5a.75.75 0 0 0 .75.75h1.5a.75.75 0 0 0 .75-.75v-1.5a.75.75 0 0 0-.75-.75H9zm4.5-12a.75.75 0 0 0-.75.75v1.5a.75.75 0 0 0 .75.75h1.5a.75.75 0 0 0 .75-.75V4.5a.75.75 0 0 0-.75-.75h-1.5zm0 6a.75.75 0 0 0-.75.75v1.5a.75.75 0 0 0 .75.75h1.5a.75.75 0 0 0 .75-.75v-1.5a.75.75 0 0 0-.75-.75h-1.5zm0 6a.75.75 0 0 0-.75.75v1.5a.75.75 0 0 0 .75.75h1.5a.75.75 0 0 0 .75-.75v-1.5a.75.75 0 0 0-.75-.75h-1.5zm4.5-12a.75.75 0 0 0-.75.75v1.5a.75.75 0 0 0 .75.75h1.5a.75.75 0 0 0 .75-.75v-1.5a.75.75 0 0 0-.75-.75h-1.5zm0 6a.75.75 0 0 0-.75.75v1.5a.75.75 0 0 0 .75.75h1.5a.75.75 0 0 0 .75-.75v-1.5a.75.75 0 0 0-.75-.75h-1.5zm0 6a.75.75 0 0 0-.75.75v1.5a.75.75 0 0 0 .75.75h1.5a.75.75 0 0 0 .75-.75v-1.5a.75.75 0 0 0-.75-.75h-1.5z"/>
</svg>