<svg xmlns="http://www.w3.org/2000/svg" viewBox="0 0 24 24" fill="currentColor">
  <path d="M12 2a1.5 1.5 0 0 0-1.5 1.5v1.063c-.296.073-.587.166-.87.28L8.875 3.563a1.5 1.5 0 0 0-2.12 2.12l.28 1.255c-.114.283-.207.574-.28.87H5.69a1.5 1.5 0 0 0 0 3h1.063c.073.296.166.587.28.87l-.28 1.255a1.5 1.5 0 0 0 2.12 2.12l1.255-.28c.283.114.574.207.87.28V16.31a1.5 1.5 0 0 0 3 0v-1.063c.296-.073.587-.166.87-.28l1.255.28a1.5 1.5 0 0 0 2.12-2.12l-.28-1.255c.114-.283.207-.574.28-.87H18.31a1.5 1.5 0 0 0 0-3h-1.063c-.073-.296-.166-.587-.28-.87l.28-1.255a1.5 1.5 0 0 0-2.12-2.12l-1.255.28c-.283-.114-.574-.207-.87-.28V3.5A1.5 1.5 0 0 0 12 2zm0 6a4 4 0 1 1 0 8 4 4 0 0 1 0-8z"/>
</svg>