<svg xmlns="http://www.w3.org/2000/svg" viewBox="0 0 24 24" fill="currentColor">
  <path d="M8.25 10.875a.75.75 0 0 1 .75-.75h6a.75.75 0 0 1 0 1.5h-6a.75.75 0 0 1-.75-.75zm.75 3.125a.75.75 0 1 0 0 1.5h6a.75.75 0 1 0 0-1.5h-6z"/>
  <path d="M3 21v-3.75A3.75 3.75 0 0 1 6.75 13.5h.457c-.093.25-.157.517-.157.792 0 1.265 1.035 2.292 2.292 2.292s2.292-1.027 2.292-2.292c0-.275-.064-.542-.157-.792h.914c-.093.25-.157.517-.157.792 0 1.265 1.035 2.292 2.292 2.292s2.292-1.027 2.292-2.292c0-.275-.064-.542-.157-.792h.457A3.75 3.75 0 0 1 21 17.25V21H3zm18-6.75V21h1.5v-6.75c0-.995-.713-1.832-1.66-2.024.1.239.16.502.16.774 0 1.265-1.035 2.292-2.292 2.292S17.516 14.265 17.516 13c0-.272.06-.535.16-.774-.947.192-1.66 1.029-1.66 2.024V21H18v-6.75a.75.75 0 0 0-1.5 0V21H9v-6.75a.75.75 0 0 0-1.5 0V21H4.5v-6.75c0-.995-.713-1.832-1.66-2.024.1.239.16.502.16.774 0 1.265-1.035 2.292-2.292 2.292S.516 14.265.516 13c0-.272.06-.535.16-.774C-.727 12.418 0 13.255 0 14.25V21h1.5v-6.75z"/>
</svg>