<svg xmlns="http://www.w3.org/2000/svg" viewBox="0 0 24 24" fill="currentColor">
  <path d="M6.75 3v.563c-.296.073-.587.166-.87.28L4.625 3.563a1.5 1.5 0 0 0-2.12 2.12l.28 1.255c-.114.283-.207.574-.28.87H1.69a1.5 1.5 0 0 0 0 3h1.063c.073.296.166.587.28.87l-.28 1.255a1.5 1.5 0 0 0 2.12 2.12l1.255-.28c.283.114.574.207.87.28v1.063a1.5 1.5 0 0 0 3 0v-1.063c.296-.073.587-.166.87-.28l1.255.28a1.5 1.5 0 0 0 2.12-2.12l-.28-1.255c.114-.283.207-.574.28-.87h1.063a1.5 1.5 0 0 0 0-3H14.31c-.073-.296-.166-.587-.28-.87l.28-1.255a1.5 1.5 0 0 0-2.12-2.12l-1.255.28c-.283-.114-.574-.207-.87-.28V3a1.5 1.5 0 0 0-3 0zm1.5 1.5v.938a.75.75 0 0 1-.563.728c-.3.074-.587.188-.87.34a.75.75 0 0 1-.828-.023l-.78-.527-.527.78a.75.75 0 0 1 .023.828c-.152.283-.266.57-.34.87a.75.75 0 0 1-.728.563H2.19v1.5h.938a.75.75 0 0 1 .728.563c.074.3.188.587.34.87a.75.75 0 0 1-.023.828l-.527.78.78.527a.75.75 0 0 1 .828-.023c.283-.152.57-.266.87-.34a.75.75 0 0 1 .728-.563v.938h1.5v-.938a.75.75 0 0 1 .728-.563c.3-.074.587-.188.87-.34a.75.75 0 0 1 .828.023l.78.527.527-.78a.75.75 0 0 1-.023-.828c.152-.283.266-.57.34-.87a.75.75 0 0 1 .563-.728v-.938h1.5v.938a.75.75 0 0 1-.563.728c-.3.074-.587.188-.87.34a.75.75 0 0 1-.828-.023l-.78-.527-.527.78a.75.75 0 0 1 .023.828c-.152.283-.266.57-.34.87a.75.75 0 0 1-.728.563v.938H8.25v-.938a.75.75 0 0 1-.728-.563c-.074-.3-.188-.587-.34-.87a.75.75 0 0 1 .023-.828l.527-.78-.78-.527a.75.75 0 0 1-.828.023c-.283-.152-.57-.266-.87-.34a.75.75 0 0 1-.563-.728V4.5h1.5zm3 4.5a3 3 0 1 1-6 0 3 3 0 0 1 6 0z"/>
</svg>