<svg xmlns="http://www.w3.org/2000/svg" viewBox="0 0 24 24" fill="currentColor">
  <path d="M5.25 3A2.25 2.25 0 0 0 3 5.25v1.5a2.25 2.25 0 0 0 2.25 2.25h1.5a2.25 2.25 0 0 0 2.25-2.25v-1.5A2.25 2.25 0 0 0 6.75 3h-1.5zm12 0A2.25 2.25 0 0 0 15 5.25v1.5a2.25 2.25 0 0 0 2.25 2.25h1.5A2.25 2.25 0 0 0 21 6.75v-1.5A2.25 2.25 0 0 0 18.75 3h-1.5zM9 9v1.5a.75.75 0 0 0 .75.75h4.5a.75.75 0 0 0 .75-.75V9H9zm-3 3a2.25 2.25 0 0 0-2.25 2.25v1.5A2.25 2.25 0 0 0 6 18h1.5a2.25 2.25 0 0 0 2.25-2.25v-1.5A2.25 2.25 0 0 0 7.5 12H6zm9 0a2.25 2.25 0 0 0-2.25 2.25v1.5A2.25 2.25 0 0 0 15 18h1.5a2.25 2.25 0 0 0 2.25-2.25v-1.5A2.25 2.25 0 0 0 16.5 12H15zm-3 3v1.5a.75.75 0 0 0 .75.75h.5a.75.75 0 0 0 .75-.75V15H12zm-5.25 3A2.25 2.25 0 0 0 4.5 20.25v1.5a.75.75 0 0 0 .75.75h3a.75.75 0 0 0 .75-.75v-1.5A2.25 2.25 0 0 0 6.75 18zm10.5 0a2.25 2.25 0 0 0-2.25 2.25v1.5a.75.75 0 0 0 .75.75h3a.75.75 0 0 0 .75-.75v-1.5a2.25 2.25 0 0 0-2.25-2.25z"/>
</svg>